<svg xmlns="http://www.w3.org/2000/svg" width="185" height="175" viewBox="0 0 185 175"><g fill="#DA322C"><path d="M163.545 14.434l-4.281.007v-1.063h2.105V9.029h-2.111V7.905h4.289V1.383h13.111v13.051h6.527v6.558H163.55l.007-6.561s4.313-.01 6.52-.01V7.914l-6.529-.003-.003 6.523zM143.818 20.995h-19.487l-.015-6.539h6.491V7.899h-6.482v-6.53h13.062l.015 13.05 6.42-.005zM156.943 10.108h2.188v2.164h-2.152v2.185h-2.129v2.153h-2.203v-2.121h-2.192v-2.19h-2.142v-2.167h2.088V7.923h2.178V5.801h2.262v2.07h2.104c-.002.747-.002 2.237-.002 2.237zm-1.646 2.728V9.59h-3.188v3.246h3.188z"/><path d="M143.814 7.941h4.381v1.023h-2.094v4.392h2.096v1.073h-4.385l.002-6.488zM150.479 1.357h6.444v4.289h-.993V3.547h-4.401v2.082h-1.05zM155.913 18.85v-2.109h1.003v4.249h-6.434v-4.251h1.014v2.111zM147.113 24.338c.645-.022 1.267-.099 1.878-.051.747.058 1.35.587 1.366 1.269.047 1.76.017 3.521.017 5.332h-.942v-.751c0-1.302.004-2.603 0-3.905-.002-.988-.281-1.22-1.369-1.06v5.711h-.946c-.004-2.141-.004-4.287-.004-6.545zM128.303 25.181v5.708h-.92v-6.535c.607-.037 1.184-.12 1.754-.092.795.039 1.469.573 1.496 1.312.063 1.759.02 3.521.02 5.323h-.936v-.767c.001-1.303.006-2.606 0-3.91-.004-.964-.315-1.211-1.414-1.039zM174.561 30.9h-.931v-1.77c0-.999.011-1.999-.004-2.998-.013-.886-.399-1.154-1.41-.923v5.69h-.95v-6.451c.707-.221 1.43-.304 2.164-.108.649.174 1.094.631 1.112 1.282.051 1.738.019 3.478.019 5.278zM154.934 26.877c.019-.172.035-.285.039-.398.043-1.306-.033-1.385-1.314-1.398-.229-.002-.455-.021-.665-.032-.179-.374-.062-.595.278-.65.455-.074.922-.158 1.379-.128.9.058 1.236.43 1.257 1.338.022 1.069.009 2.139.011 3.208v2.071c-1.029.191-2.036.496-2.881-.283-.768-.708-.646-1.675-.398-2.551.305-1.1 1.333-1.063 2.294-1.177zm.004.917c-.549-.037-1.057-.123-1.307.388-.271.559-.295 1.193.034 1.732.283.464.776.38 1.272.266l.001-2.386zM179.119 26.867c0-.406.008-.793-.002-1.181-.01-.394-.223-.596-.614-.6-.46-.005-.92-.001-1.354-.001-.133-.351-.121-.625.215-.656.638-.061 1.283-.098 1.922-.061.396.023.646.333.729.741.025.137.07.274.07.411.005 1.762.004 3.524.004 5.35-.975.225-1.939.479-2.801-.188-.813-.632-.729-1.572-.549-2.442.252-1.243 1.336-1.241 2.38-1.373zm-.029.984c-.529-.156-.969-.12-1.295.305-.25.327-.225 1.404.014 1.752.232.342.604.41 1.281.217v-2.274zM165.689 27.679c0-.581-.021-1.162.004-1.742.041-1.003.729-1.688 1.67-1.692.936-.004 1.672.678 1.705 1.666.039 1.161.039 2.324.006 3.485-.03 1.031-.764 1.7-1.752 1.678-.955-.021-1.58-.674-1.619-1.721-.021-.557-.004-1.115-.004-1.673l-.01-.001zm.957-.044h.029c0 .646-.025 1.296.014 1.94.021.381.261.642.685.642.418 0 .618-.263.714-.63.023-.088.025-.184.025-.275.002-1.111.012-2.222-.004-3.333-.008-.543-.281-.866-.688-.887-.44-.022-.748.304-.771.877-.023.554-.004 1.111-.004 1.666zM140.633 28.218h-2.33c-.033.162-.066.25-.068.338-.036 1.406.021 1.763 1.596 1.709.25-.009.688-.205.72.278.028.426-.397.4-.669.447a4.493 4.493 0 0 1-1.174.065c-.809-.075-1.41-.736-1.438-1.616a58.358 58.358 0 0 1-.002-3.55 1.67 1.67 0 0 1 1.728-1.643c.961.026 1.625.71 1.638 1.705.007.715-.001 1.429-.001 2.267zm-2.377-.871h1.434c0-.574.037-1.081-.012-1.58-.041-.437-.371-.702-.736-.68-.414.024-.645.291-.674.665-.043.52-.012 1.046-.012 1.595zM158.128 22.996h.901l.109 1.34 1.41.075c.02.246.034.466.059.761l-1.447.092c-.026.185-.074.361-.075.538a216.224 216.224 0 0 0-.002 3.417c.009.91.099.989.996 1.011.183.004.364.021.532.031.171.311.101.501-.188.639-1.207.58-2.235-.002-2.278-1.351-.047-1.394-.016-2.79-.018-4.185l.001-2.368zM132.977 22.998h.863c.026.443.053.852.081 1.333l1.462.083v.768l-1.425.081c-.028.177-.071.331-.073.484-.006 1.208-.01 2.415-.001 3.622.007.763.097.845.839.857.229.004.454.001.857.001-.161.305-.206.552-.35.637-1.111.667-2.281.024-2.293-1.265-.02-2.043-.006-4.087-.004-6.131.003-.136.025-.271.044-.47zM143.708 30.904h-.909c-.025-.185-.064-.34-.064-.497-.004-1.721.014-3.441-.012-5.161-.008-.458.154-.694.594-.764.586-.093 1.17-.191 1.822-.298l.049.855-1.479.096-.001 5.769zM183.191 31.027c-.686-.115-.834-.253-.854-.896-.023-.93-.01-1.86-.01-2.791v-4.315h.859c.005 2.674.005 5.335.005 8.002zM125.049 30.907h-.857v-6.484h.857v6.484zM163.471 30.906h-.857V24.42l.857-.043v6.529zM158.116 17.683v-2.068h2.09v2.068h-2.09zM158.143 4.625h2.09v2.116h-2.09zM149.223 17.678h-2.02V15.61h2.02v2.068zM147.2 6.737V4.672h2.024v2.065H147.2zM163.475 23.015c.045.73.045.732-.848.762v-.762h.848zM125.021 23.015c.074.709.062.723-.817.765v-.765h.817z"/></g><g fill="#E40887"><path d="M158.198 67.449c.649-1.552 3.849-11.683 7.024-14.872 3.291-3.306 5.096-1.985 5.096-1.985s.209-1.416-1.198-2.527c-1.824-1.438-4.134-.645-5.877.987-.839.786-2.086 2.938-3.056 5.187-1.432 3.312-2.762 6.758-3.271 7.396-.631.796-2.044 1.016-1.378-1.143.689-2.246 1.232-2.993 1.561-3.92.854-2.448.305-3.256.135-3.569-.319-.591-.904-.91-1.515-1.071-1.268-.334-2.45.027-2.45.027.5 1.339 1.109 2.094-.465 6.588-.078.223-.148.438-.21.646-.294.776-1.142 2.38-1.747 3.005-.712.731-1.539 1.411-2.369 1.691-.776.263-2.871.23-1.865-1.8.365-.734 1.271-1.522 2.5-2.301 2.146-1.358 2.902-3.138 2.753-4.504-.122-1.111-.576-2.426-2.403-3.066-1.388-.485-3.354.057-4.177.95-1.024 1.115-1.026 2.019-.94 3.03 0 0 .838-1.037 1.893-1.434.471-.176.98-.184 1.393-.053.696.222.955 1.013.49 1.728-1.146 1.765-3.207 2.611-4.104 3.443-.449.416-.838.825-1.113 1.232-1.225 1.533-1.875 2.732-2.926 3.279-.746.386-1.287.245-1.293-.43-.004-.619.592-2.128 1.313-3.521.461-.892 1.758-2.963 2.204-3.774.569-1.036.963-2.296.008-3.105-1.849-1.564-3.856-.274-3.856-.274.129 1.254-.539 2.713-1.75 5.099-1.242 2.449-2.688 6.915.235 7.786a4.232 4.232 0 0 0 3.456-.463c.678-.431 1.469-1.322 2.195-2.227.205.829.807 1.624 2.039 2.039 3.912.588 6.549-1.396 7.777-3.235.576 2.932 4.139 2.533 4.139 2.533s-.325 1.256-.764 1.903c-7.007-1.574-19.17-.043-25.213 4.28-1.236.885-2.218 1.887-2.845 3.003-.192.343-1.06 1.647-.922 3.469.142 1.899 1.343 3.162 1.897 3.602 2.711 2.141 8.352 2.73 13.457 1.565 8.92-2.032 13.479-9.805 14.35-11.166 9.404 3.857 4.772 10.591 3.949 11.263 1.969.521 7.463-1.616 7.045-6.871-.418-5.253-7.459-7.987-9.202-8.42zm-7.081 7.216c-1.021 1.197-2.93 3.063-7.491 4.937-1.733.712-3.55 1.218-5.726 1.258-1.5.026-3.73.283-6.9-1.243-.689-.333-1.335-.897-1.607-1.864-.328-1.164.756-2.792 4-4.744 4.01-2.416 7.735-2.911 10.853-3.242 5.921-.627 9.917.765 9.917.765-1.166 2.091-2.124 3.053-3.046 4.133zM181.572 50.948c-1.848-1.564-3.856-.274-3.856-.274.13 1.253-.54 2.713-1.751 5.099-.875 1.724-1.857 4.565-1.357 6.323.567 1.996 3.177 1.659 3.728 1.557 1.319-.245 1.772-1.149 1.694-1.942-.86.696-1.34.697-1.625.42-.17-.165-.655-.612-.133-1.919.277-.703.679-1.585 1.09-2.386.463-.891 1.759-2.962 2.203-3.772.572-1.036.964-2.297.007-3.106z"/><path d="M135.367 58.406c.453-1.665.675-3.363.601-4.914-.065-1.393-.374-2.19-.839-2.998-.593-1.03-1.285-1.801-3.01-2.441-3.919-1.457-5.643-1.248-7.084-1.938-1.455-.696-1.178-1.942-.258-2.315.798-.321 1.826-.243 2.354-.176 1.156.145 2.605.459 4.137.994 1.709.599 3.408 1.25 6.422 2.097 6.015 1.692 13.168-3.179 8.881-8.608-.771 1.486-5.375 5.731-14.797 2.931-4.979-1.48-9.11.074-10.082 2.103-.498 1.037-.328 2.985 1.433 4.299.871.649 2.106.908 3.358 1.316.582.192 2.33.617 3.051.817.898.249 1.914.638 2.724 1.343.851.739 1.236 1.482 1.418 2.112.19.656.269 2.304.249 2.727-.136 3.296-2.371 6.517-4.889 7.892-1.534.837-1.926-.316-1.598-1.881.387-1.835 1.354-3.976 2.351-4.845 1.847-1.613 2.666.225 2.666.225.673-.183 1.307-3.737-2.584-2.755-4.53 1.143-9.986 10.996-4.265 12.94 4.371 1.485 8.29-3.541 9.761-8.925zM175.918 47.408c-.277-1.462-.881-3.144-1.734-4.548.924-.427 1.866-.709 3.438-.779 2.308-.103 3.935 1.385 3.935 1.385s2.643-1.548.358-4.231c-2.433-2.58-6.987-.757-10.083.846-3.426-3.367-8.646-5.382-14.688-3.523-2.752.847-5.629 2.353-7.086 4.831-.496.843-.832 2.133-.607 3.591.479 3.09 4.133 3.974 7.587 3.717.969-.072 3.424-.61 5.967-1.563 3.192-1.197 6.617-2.893 8.44-3.376 1.546 1.375 2.675 3.9 2.507 6.493-.286 4.365-3.968 8.509-4.478 9.153-.494.624-1.166 1.141-1.269 1.202-2.063 1.278-1.399-4.164.729-6.293 1.67-1.667 2.908-.438 2.908-.438.885-1.126.286-3.5-3.813-1.656-2.865 1.288-4.848 4.773-5.17 7.579-.291 2.545.369 4.766 2.082 5.107 3.259.698 6.717-3.702 7.904-5.636 1.727-2.809 4.117-6.38 3.073-11.861zm-20.408-1.677c-1.521-1.585-.296-3.591.785-4.32 1.436-.965 3.402-1.463 4.482-1.563 2.625-.242 6.295.372 8.236 1.925-2.87 1.7-11.14 6.425-13.503 3.958z"/><circle cx="141.816" cy="50.162" r="2.19"/><circle cx="181.257" cy="47.541" r="2.19"/></g><g fill="#82B3DC"><path d="M38.578 128.307c0 1.494-1.036 2.688-3.026 2.688-1.981 0-3.009-1.184-3.009-2.688v-3.871h1.825v3.385c0 1.164.404 1.539 1.184 1.539.797 0 1.201-.375 1.201-1.539v-3.385h1.825v3.871zM45.856 130.898h-2.458l-1.623-1.853-.358.44v1.41h-1.825v-6.465h1.825v2.485l2.091-2.485h2.247l-2.779 3.237 2.88 3.231zM49.068 129.523c-.019-.008-.037-.008-.056-.008h-.797v1.383h-1.88v-6.463h3.072c2.008 0 2.696 1.183 2.696 2.467 0 1.055-.376 1.844-1.183 2.265l1.385 1.731h-2.238l-.999-1.375zm-.852-1.474h.715c.926 0 1.201-.515 1.201-1.009 0-.541-.256-1.073-1.045-1.073h-.871v2.082zM57.413 129.863h-2.412l-.45 1.035H52.59l3.182-6.463h.88l3.191 6.463h-1.972l-.458-1.035zm-1.751-1.484h1.101l-.551-1.275-.55 1.275zM62.225 130.898h-1.88v-6.463h1.88v6.463zM69.364 124.436v6.465h-.88l-3.347-3.198v3.198h-1.88v-6.465h.881l3.347 3.201v-3.201h1.879zM75.586 129.369v1.529h-5.254v-6.463h5.062v1.529h-3.237v1.057h2.668v1.484h-2.668v.861l3.429.003z"/><g><path d="M38.211 134.715h-1.889v4.934h-1.88v-4.934h-1.898v-1.531h5.667v1.531zM45.134 136.42c0 1.835-1.541 3.32-3.457 3.32-1.907 0-3.457-1.485-3.457-3.32 0-1.832 1.549-3.318 3.457-3.318 1.917 0 3.457 1.486 3.457 3.318zm-1.907 0c0-.906-.688-1.648-1.55-1.648-.843 0-1.541.742-1.541 1.648 0 .918.697 1.65 1.541 1.65.862 0 1.55-.732 1.55-1.65zM48.922 139.648h-3.108v-6.465h2.897c1.797 0 3.255 1.447 3.255 3.234 0 1.72-1.348 3.231-3.044 3.231zm-.165-1.63c.752-.027 1.357-.732 1.357-1.598 0-.879-.633-1.604-1.403-1.604h-1.073v3.199h1.119v.003zM56.362 138.613H53.95l-.449 1.035h-1.963l3.182-6.465h.881l3.191 6.465H56.82l-.458-1.035zm-1.751-1.485h1.1l-.55-1.276-.55 1.276zM63.906 133.184l-2.438 4.293v2.172h-1.881v-2.172l-2.43-4.293h2.137l1.238 2.35 1.238-2.35h2.136z"/></g><path d="M17.949 114.912c-6.827 0-12.362 5.535-12.362 12.361 0 6.83 5.535 12.363 12.362 12.363h12.364v-12.363c0-6.826-5.536-12.361-12.364-12.361zm.183 15.592c0 2.344-1.625 4.213-4.746 4.213-3.106 0-4.717-1.854-4.717-4.213v-6.068h2.862v5.309c0 1.824.632 2.416 1.854 2.416 1.251 0 1.884-.592 1.884-2.416v-5.309h2.861v6.068h.002zm10.132-3.634h-3.003v7.845h-2.989v-7.845h-3.019v-2.435h9.011v2.435z"/></g><g fill="#FFF"><path d="M141.256 102.759v12.43h-2.97v-9.501h-3.198v9.501h-2.972v-12.43zM141.256 88.423v12.431h-2.97v-9.5h-3.198v9.5h-2.972V88.423zM148.966 95.988l-.941-2.53-.902 2.459-1.859 4.937h-3.181l4.865-12.445h2.12l5.056 12.445h-3.353zM181.148 95.771c-.455 1.254-1.631 2.146-3.018 2.146-1.771 0-3.211-1.469-3.211-3.282s1.438-3.281 3.211-3.281c1.367 0 2.535.873 2.999 2.104h2.979c-.541-2.871-3.01-5.04-5.979-5.04-3.357 0-6.085 2.783-6.085 6.22 0 3.434 2.728 6.217 6.085 6.217 2.979 0 5.46-2.188 5.982-5.082h-2.963v-.002zM165.044 97.843c-1.774 0-3.212-1.47-3.212-3.28 0-1.813 1.438-3.283 3.212-3.283s3.212 1.471 3.212 3.283c0 1.81-1.438 3.28-3.212 3.28m0-9.428c-2.823 0-5.196 1.967-5.883 4.633h-1.246V88.42h-2.955v12.426h2.955v-4.777h1.208c.634 2.742 3.044 4.785 5.921 4.785 3.36 0 6.085-2.783 6.085-6.22 0-3.436-2.725-6.219-6.085-6.219M148.966 110.324l-.941-2.532-.902 2.46-1.859 4.937h-3.181l4.865-12.446h2.12l5.056 12.446h-3.353zM181.148 110.107c-.455 1.252-1.631 2.146-3.018 2.146-1.771 0-3.211-1.471-3.211-3.282 0-1.813 1.438-3.283 3.211-3.283 1.367 0 2.535.875 2.999 2.104h2.979c-.541-2.871-3.01-5.04-5.979-5.04-3.357 0-6.085 2.784-6.085 6.22 0 3.434 2.728 6.219 6.085 6.219 2.979 0 5.46-2.188 5.982-5.082h-2.963v-.002zM165.044 112.178c-1.774 0-3.212-1.471-3.212-3.283 0-1.812 1.438-3.279 3.212-3.279s3.212 1.47 3.212 3.279c0 1.812-1.438 3.283-3.212 3.283m0-9.429c-2.823 0-5.196 1.967-5.883 4.634h-1.246v-4.627h-2.955v12.426h2.955v-4.779h1.208c.634 2.742 3.044 4.787 5.921 4.787 3.36 0 6.085-2.785 6.085-6.221 0-3.435-2.725-6.22-6.085-6.22"/></g><path fill="#F7C91C" d="M10.554 86.102l.741-.677h1.728v-4.731l-.013-.48H7.593L3.15 83.935v4.219h7.403l.001-2.052zm3.949-5.889v5.211h2.222l.74.677v1.538L3.15 96.838v4.962h3.455l6.911-4.466 10.859-6.947v-6.452l-3.95-3.721-5.922-.001zm3.646 15.875l-8.582 5.514v.198h14.808v-5.243l-.027-.465-6.199-.004zm23.502-12.153h-6.417v5.708h-6.91v6.431l6.91.007v5.722h6.395l.007-5.715 6.926.007v-6.447h-6.918l.007-5.713zm17.277 2.167l.741-.677h1.728v-4.731l-.013-.48h-5.417l-4.443 3.721v4.219h7.405l-.001-2.052zm9.871-5.889h-5.922v5.211h2.221l.741.677v1.538l-14.315 9.198v4.962h3.456l6.91-4.466 10.86-6.947v-6.452l-3.951-3.721zM57.94 101.602v.198h14.809v-5.708l-6.226-.004-8.583 5.514z"/><path fill="#B42025" d="M68.365 2.36c-.387-.374-.893-.637-1.606-.648h-3.653c-.712.011-.934.274-1.321.648-.374.382-.71.629-.727 1.436v6.543c0 .468-.165.812-.513.812h-2.68c-.411 0-.545-.343-.545-.812V3.796c-.017-.8-.351-1.05-.728-1.436-.387-.374-.896-.637-1.606-.648h-3.835c-.713.011-.935.276-1.323.651-.374.382-.709.632-.723 1.432v22.902c.014.803.35 1.049.723 1.432.387.373.61.674 1.323.686h3.835c.711-.012 1.22-.31 1.606-.685.376-.381.71-.63.728-1.433v-6.778c0-.649.07-.759.545-.759h2.68c.333 0 .513.109.513.759v6.778c.017.805.354 1.052.727 1.433.386.375.607.673 1.321.685h3.653c.715-.012 1.221-.31 1.607-.685.374-.378.712-.628.726-1.433V3.796c-.014-.806-.352-1.053-.727-1.436zm-.373 24.475c-.009.671-.579.941-1.233.945h-3.651c-.654-.004-.939-.274-.948-.945V18.82s-.113-.69-.563-.69h-4.815c-.545 0-.562.69-.562.69v8.015c-.007.676-.575.943-1.232.945h-3.835c-.66-.002-.939-.269-.945-.945V3.763c.009-.671.292-.942.945-.947h3.835c.653.005 1.223.276 1.232.947v7.812c0 .351.159.652.562.652h4.815c.45 0 .563-.226.563-.652V3.763c.009-.671.293-.942.948-.947h3.651c.654.005 1.224.276 1.233.947v23.072zM66.094 3.697h-2.417c-.349 0-.641.167-.641.533v8.346c0 .476-.046.772-.544.772H55.82c-.398 0-.722-.44-.722-.823V4.264c0-.356-.197-.566-.505-.566h-2.696c-.536 0-.774.27-.774.6v21.914c0 .376.172.686.813.686h2.562s.601-.134.601-.686v-8.428c0-.353.295-.758.722-.758h6.671c.452 0 .544.438.544.758l.001 8.428c0 .501.569.686.569.686h2.847c.451 0 .654-.233.654-.686V4.33c-.001-.422-.349-.633-1.013-.633zM20.19 1.855H4.271c-.698.014-1.192.391-1.568.782-.362.396-.688.524-.703 1.365v3.076c-.01.478.17.616.449.981.427.556.853.699 1.133.79.293.081.506.09.69.093h3.031c.261 0 .54.133.54.636v17.153c.015.84.343 1.111.704 1.508.376.389.867.7 1.569.713h4.031c.702-.014.909-.328 1.283-.719.363-.398.686-.665.701-1.503V9.603s-.003-.661.542-.661h3.231c.246-.008.396-.008.867-.213.231-.111.53-.293.808-.662.281-.364.463-.508.453-.989l.001-3.076c-.016-.841-.341-1.065-.705-1.462-.376-.391-.44-.671-1.138-.685zm.722 5.36a1 1 0 0 1-.276.7c-.193.201-.343-.106-.732-.106h-4.156c-.617 0-.738.491-.738.791v18.27c-.009.669-.253.938-.863.946h-4.031c-.612-.007-1.142-.277-1.152-.946V8.6c0-.375-.31-.791-.784-.791H4.272c-.389 0-.682.308-.875.106a1 1 0 0 1-.275-.7V3.832c.009-.668.54-.799 1.15-.806H20.19c.611.007.712.135.722.806v3.383zm-1.365-3.349H5.056c-.443 0-.641.317-.641.507v2.162c0 .312.159.449.35.449H9.58c.309 0 .678.44.678.765l-.002 18.588c0 .25.155.495.345.495h2.966c.178 0 .436-.145.436-.495V7.749c0-.4.371-.765.75-.765h4.794c.354 0 .5-.262.5-.636V4.373c0-.325-.181-.507-.5-.507zM34.587.771c-3.141 0-5.857 1.201-7.703 2.934-1.893 1.777-2.975 3.951-2.968 6.957v9.072c-.006 2.621 1.368 5.633 2.925 7.095 1.845 1.731 4.521 2.978 7.658 2.978 5.521 0 10.771-2.447 10.771-9.294V20.2c-.015-.835-.055-1.459-.417-1.852-.373-.386-.64-.629-1.353-.629s-3.612.01-4.136.01c-.862 0-1.804.33-1.892 1.803-.049.827-.714 1.734-2.723 1.734-2.185 0-2.347-1.724-2.339-2.151v-7.562c-.008-.429.154-2.241 2.339-2.241 2.062 0 2.673.886 2.723 1.73.088 1.472 1.03 1.803 1.892 1.803l4.109.002c.713 0 1.007-.234 1.38-.619.362-.393.402-1.016.417-1.854v-.314C45.271 1.807 37.395.771 34.587.771zm8.81 11.014l-3.508.003c-.646 0-1.304-.115-1.385-1.176-.163-2.129-2.143-2.601-3.569-2.601-3.385 0-3.702 2.396-3.7 3.229v8.093c-.001.832.315 3.228 3.7 3.228 1.155 0 3.396-.32 3.569-2.601.081-1.058.739-1.176 1.385-1.176l3.508.005c.606.009.658.485.658 1.65 0 5.242-4.074 8.052-9.468 8.052-5.401 0-9.459-4.041-9.467-9.218v-8.154c.008-5.175 3.982-9.127 9.383-9.127 5.393 0 9.552 2.898 9.552 8.142 0 1.164-.052 1.642-.658 1.651zM34.549 3.38c-4.847 0-8.55 3.711-8.55 7.831v8.152c0 4.117 3.783 7.989 8.631 7.989 4.016 0 8.136-2.058 8.382-6.553.024-.438-.201-.769-.507-.769l-2.093.001c-.438 0-.759.093-.831.51-.403 2.304-2.134 3.477-4.863 3.477-2.923 0-4.835-2.211-4.839-4.655v-8.152c.004-2.447 1.916-4.655 4.839-4.655 2.918 0 4.438 1.043 4.863 3.474.072.417.393.511.831.511l2.093.004c.307 0 .531-.336.507-.772-.246-4.498-4.448-6.393-8.463-6.393z"/><g fill="#95C76B"><path d="M19.491 50.013h-3.188v9.044h-.234v.001h-2.347v-.001h-.234v-9.044H10.3v-2.35h9.192l-.001 2.35zm6.765 3.348c0-6.281-5.086-11.373-11.361-11.373-6.274 0-11.361 5.091-11.361 11.373 0 6.281 5.086 11.372 11.361 11.372s11.361-5.091 11.361-11.372M67.578 50.013H64.39v9.044h-.234v.001h-2.347v-.001h-.234v-9.044h-3.188v-2.35h9.192l-.001 2.35zm6.765 3.348c0-6.281-5.086-11.373-11.361-11.373-6.274 0-11.36 5.091-11.36 11.373 0 6.281 5.086 11.372 11.36 11.372s11.361-5.091 11.361-11.372M35.044 53.98l6.954-3.408a4.04 4.04 0 0 0-2.945-1.271 4.058 4.058 0 0 0-4.009 4.679m10.241-2.328l-9.178 4.497a4.037 4.037 0 0 0 2.945 1.271 4.045 4.045 0 0 0 3.231-1.608l.027-.012 2.483.53a6.46 6.46 0 0 1-12.202-2.969 6.465 6.465 0 0 1 6.461-6.467 6.463 6.463 0 0 1 6.233 4.758m5.014 1.709c0-6.281-5.086-11.373-11.361-11.373S27.577 47.08 27.577 53.361s5.087 11.373 11.361 11.373 11.361-5.092 11.361-11.373"/></g><path fill="#FFF" d="M148.55 167.861c0 .462.386.843.858.843h2.439a.853.853 0 0 0 .857-.843V154.73l-4.157 8.094.003 5.037zm-2.003-36.119h8.165v-1.1h-8.165v1.1zm6.655-4.06h-5.144c-.824 0-1.514.674-1.514 1.481v.642h8.165v-.642c.003-.809-.686-1.481-1.507-1.481zm-6.655 5.998h8.165v-1.1h-8.165v1.1zm0 1.457c0 .809.688 1.482 1.512 1.482h5.146c.819 0 1.51-.676 1.51-1.482v-.619h-8.165l-.003.619zm21.474 4.988h-7.246c-2.246 0-4.159 1.836-4.159 4.079v23.642c0 .35.341.805.791.805h2.493c.553 0 .885-.496.875-.758v-11.076h3.947v11.039c0 .313.291.758.789.795h2.596s.781-.037.781-.996v-26.616c-.001-.18-.13-.9-.867-.914zm-3.298 13.508h-3.947v-9.429h3.947v9.429zm-12.873-13.599h-2.439a.85.85 0 0 0-.858.842v15.13l4.157-8.095v-7.035a.858.858 0 0 0-.86-.842zm-8.067 0h-2.439a.851.851 0 0 0-.857.842v11.687h-3.947v-11.687a.856.856 0 0 0-.859-.842h-2.439a.852.852 0 0 0-.858.842v26.88c0 .465.388.844.858.844h2.439a.853.853 0 0 0 .859-.844v-12.01h3.947v12.01c0 .465.387.844.857.844h2.439a.853.853 0 0 0 .859-.844v-26.88a.852.852 0 0 0-.859-.842zm39 0h-2.442a.853.853 0 0 0-.858.842v11.687h-3.946v-11.687a.854.854 0 0 0-.858-.842h-2.441a.852.852 0 0 0-.857.842v26.88c0 .465.387.844.857.844h2.441a.852.852 0 0 0 .858-.844v-12.01h3.946v12.01c0 .465.39.844.858.844h2.442a.852.852 0 0 0 .857-.844v-26.88a.85.85 0 0 0-.857-.842zm-53.76 0h-2.439a.851.851 0 0 0-.857.842v15.438h-3.949v-14.388h-.004v-1.053a.851.851 0 0 0-.855-.842h-2.439a.847.847 0 0 0-.856.823l-.003.019v1.054h.003v14.387c0 2.246 1.913 4.123 4.159 4.123h3.947v4.08h-3.965v-.847a.84.84 0 0 0-.288-.624.87.87 0 0 0-.57-.22h-2.439a.868.868 0 0 0-.572.22.838.838 0 0 0-.271.484c-.008.047-.017.091-.017.14v1.056h.002c-.022.824.129 3.871 3.766 3.871h4.355c2.285 0 4.155-1.916 4.155-4.08v-23.644a.858.858 0 0 0-.863-.839z"/><g fill="#FFF"><path d="M33.391 155.874l3.528 8.319 3.527-8.319h4.208l-5.976 13.399H35.16l-5.977-13.399h4.208zM49.668 155.874l3.528 8.319 3.527-8.319h4.208l-5.978 13.399h-3.519l-5.977-13.399h4.211zM22.027 155.874a6.772 6.772 0 1 0 0 13.544 6.772 6.772 0 0 0 0-13.544zm-.002 10.093a3.32 3.32 0 0 1 0-6.64 3.32 3.32 0 1 1 0 6.64zM71.744 155.874v1.114a6.772 6.772 0 1 0 0 11.315v1.115h3.842v-13.545h-3.842zm-3.72 10.093c-1.833 0-3.318-1.486-3.318-3.32a3.318 3.318 0 1 1 6.638 0 3.32 3.32 0 0 1-3.32 3.32z"/><circle cx="8.375" cy="162.656" r="3.319"/></g></svg>