<svg baseProfile="basic" xmlns="http://www.w3.org/2000/svg" width="34" height="34" viewBox="0 0 34 34"><path opacity=".5" fill-rule="evenodd" clip-rule="evenodd" fill="#2C2C2C" d="M2.101 0h29.8A2.1 2.1 0 0 1 34 2.101v29.797A2.1 2.1 0 0 1 31.9 34H2.1A2.1 2.1 0 0 1 0 31.898V2.101A2.1 2.1 0 0 1 2.101 0z"/><path fill="#FFF" d="M31.9 1c.607 0 1.1.494 1.1 1.101v29.797c0 .608-.493 1.102-1.1 1.102H2.1c-.606 0-1.1-.494-1.1-1.102V2.101C1 1.494 1.494 1 2.101 1H31.9m0-1H2.1A2.1 2.1 0 0 0 0 2.101v29.797C0 33.059.94 34 2.101 34h29.8c1.159 0 2.1-.941 2.1-2.102V2.101A2.102 2.102 0 0 0 31.9 0z" opacity=".75"/><path fill="#FFF" d="M24.968 17L12 24.502V9.497L24.968 17z"/></svg>