<svg baseProfile="basic" xmlns="http://www.w3.org/2000/svg" width="34" height="34" viewBox="0 0 34 34"><path opacity=".5" fill-rule="evenodd" clip-rule="evenodd" fill="#2C2C2C" d="M2.1 0h29.8A2.1 2.1 0 0 1 34 2.102V31.9a2.1 2.1 0 0 1-2.1 2.1H2.1A2.1 2.1 0 0 1 0 31.9V2.102A2.1 2.1 0 0 1 2.1 0z"/><path fill="#FFF" d="M31.9 1c.607 0 1.1.494 1.1 1.102V31.9c0 .605-.493 1.1-1.1 1.1H2.1c-.607 0-1.1-.494-1.1-1.1V2.102C1 1.494 1.493 1 2.1 1h29.8m0-1H2.1A2.1 2.1 0 0 0 0 2.102V31.9C0 33.06.94 34 2.1 34h29.8a2.1 2.1 0 0 0 2.1-2.1V2.102A2.1 2.1 0 0 0 31.9 0z"/><path fill="#FFF" d="M24.968 17L12 24.504V9.496L24.968 17z"/></svg>